<svg xmlns="http://www.w3.org/2000/svg" xmlns:xlink="http://www.w3.org/1999/xlink" viewBox="29.07666086 30.01864908 575.86350519 573.63919221" width="571.86" height="569.64"><defs><radialGradient id="b" gradientUnits="userSpaceOnUse" cx="237.53" cy="162.98" r="634.2"><stop offset="0%" stop-color="#8a3ffc"/><stop offset="35.97440796%" stop-color="#905fd7"/><stop offset="100%" stop-color="#010000"/></radialGradient><path d="M562.56 179.2c23.36 43.52 36.8 92.16 39.04 142.08 2.24 49.92-6.4 101.44-31.36 142.72s-65.92 72.64-110.4 96.64c-44.48 24-92.16 40.64-139.52 40-47.04-.64-94.08-18.88-135.04-45.12-40.64-25.92-75.52-60.16-104.32-100.48-28.48-40.64-51.2-88-50.88-134.72.32-47.04 23.68-93.76 50.88-136.96 27.52-42.88 58.88-81.92 99.2-109.12 40.64-27.2 90.24-42.56 140.16-43.2 49.92-.64 100.48 13.12 142.4 39.68 42.24 26.24 76.16 64.64 99.84 108.48z" id="a"/></defs><use xlink:href="#a" fill="url(#b)"/></svg>